<?xml version="1.0" standalone="no"?>
<!DOCTYPE svg PUBLIC "-//W3C//DTD SVG 20010904//EN"
 "http://www.w3.org/TR/2001/REC-SVG-20010904/DTD/svg10.dtd">
<svg version="1.0" xmlns="http://www.w3.org/2000/svg"
 width="16.000000pt" height="16.000000pt" viewBox="0 0 16.000000 16.000000"
 preserveAspectRatio="xMidYMid meet">
<metadata>
Created by potrace 1.11, written by Peter Selinger 2001-2013
</metadata>
<g transform="translate(0.000000,16.000000) scale(0.002667,-0.002667)"
fill="#000000" stroke="none">
<path d="M1152 1481 c-45 -135 -68 -191 -80 -194 -9 -3 3 -5 28 -5 28 0 37 2
25 6 -20 7 -20 9 -7 55 l13 47 60 0 c59 0 60 -1 75 -35 19 -45 18 -63 -3 -68
-10 -3 16 -5 57 -5 41 0 67 2 57 5 -21 5 -28 21 -97 226 -29 86 -56 157 -59
157 -4 0 -35 -85 -69 -189z m72 1 c21 -60 22 -71 9 -76 -23 -9 -93 -7 -93 2 0
7 27 91 45 141 8 20 12 12 39 -67z"/>
<path d="M2257 1663 c-3 -5 -33 -89 -66 -187 -33 -98 -62 -181 -65 -183 -3 -3
-16 -3 -29 1 -17 4 -35 26 -62 77 -21 41 -45 74 -56 76 -22 6 -26 23 -5 23 27
0 67 44 72 81 5 30 1 42 -23 69 l-30 33 -114 3 c-63 1 -104 0 -91 -2 22 -5 22
-7 22 -184 0 -177 0 -179 -22 -183 -13 -2 13 -4 57 -4 44 0 70 2 58 4 -22 4
-23 9 -23 89 0 64 3 84 13 84 21 0 43 -30 71 -91 37 -85 44 -89 139 -88 45 1
74 3 65 6 -21 5 -22 13 -6 64 l11 39 62 0 62 0 11 -39 c16 -51 15 -59 -5 -64
-10 -3 16 -5 57 -5 42 0 67 3 56 7 -14 5 -36 58 -83 191 -35 101 -65 185 -67
188 -2 2 -6 0 -9 -5z m-293 -46 c14 -17 17 -32 13 -65 -6 -52 -20 -69 -65 -78
l-32 -6 0 84 c0 47 3 88 6 91 12 12 58 -4 78 -26z m299 -122 c28 -87 27 -90
-18 -92 -66 -4 -67 -2 -38 82 14 42 29 73 33 68 4 -4 15 -30 23 -58z"/>
<path d="M3130 1480 c-42 -123 -70 -191 -80 -194 -8 -2 3 -4 25 -4 22 0 32 2
23 5 -22 5 -21 0 -2 56 l16 47 59 0 c55 0 60 -2 69 -25 22 -57 22 -73 3 -78
-10 -3 16 -5 57 -4 41 0 66 2 55 4 -16 3 -33 40 -85 193 -36 105 -68 190 -71
190 -3 0 -34 -85 -69 -190z m70 9 c18 -59 19 -73 8 -80 -17 -11 -88 -12 -88
-1 0 7 26 89 45 140 8 22 14 13 35 -59z"/>
<path d="M788 1650 c22 -9 22 -12 22 -180 0 -168 0 -171 -22 -180 -16 -6 22
-9 115 -9 l137 -1 -1 53 c-1 49 -1 50 -10 20 -13 -46 -47 -65 -106 -61 l-48 3
-3 173 c-2 171 -2 173 20 182 17 6 3 9 -52 9 -55 0 -69 -3 -52 -9z"/>
<path d="M1403 1653 c15 -4 17 -20 17 -145 0 -160 11 -196 65 -222 46 -22 123
-20 162 4 43 26 53 67 53 227 0 129 1 132 23 136 12 2 -3 4 -33 4 -30 0 -45
-2 -32 -4 22 -4 22 -7 22 -149 0 -190 -11 -214 -100 -214 -22 0 -47 8 -61 19
-23 19 -24 25 -27 179 l-3 160 23 5 c13 2 -11 4 -52 4 -41 1 -67 -1 -57 -4z"/>
<path d="M2598 1650 c22 -9 22 -12 22 -184 0 -173 0 -175 -22 -179 -13 -2 0
-4 27 -4 28 0 40 2 28 4 -23 4 -23 6 -23 165 0 89 2 159 5 157 2 -3 32 -74 65
-159 34 -85 65 -161 69 -169 5 -8 31 49 71 155 34 93 64 171 66 173 2 2 4 -68
4 -157 0 -159 0 -161 -22 -165 -13 -2 11 -4 52 -4 41 -1 67 1 58 4 -22 6 -24
26 -20 210 3 133 5 152 20 157 9 2 -7 4 -37 3 l-54 -2 -52 -139 c-29 -76 -54
-135 -57 -130 -3 5 -29 69 -58 142 l-52 132 -56 -1 c-44 0 -52 -2 -34 -9z"/>
<path d="M3408 1650 c22 -9 22 -12 22 -184 0 -173 0 -175 -22 -179 -13 -2 11
-4 52 -4 41 -1 67 1 58 4 -15 4 -18 17 -18 89 0 46 3 84 6 84 21 0 45 -28 69
-82 39 -88 49 -98 104 -98 44 0 45 0 23 16 -12 8 -36 42 -52 75 -17 32 -39 65
-50 71 -27 17 -26 20 15 42 38 21 48 44 43 96 -5 58 -41 74 -166 77 -76 2
-100 0 -84 -7z m139 -11 c37 -14 43 -25 43 -81 0 -38 -5 -50 -26 -67 -15 -12
-35 -21 -45 -21 -17 0 -19 9 -19 90 0 50 4 90 9 90 5 0 22 -5 38 -11z"/>
<path d="M3731 1593 c0 -69 2 -69 29 4 10 26 48 53 76 53 2 0 4 -81 4 -179 0
-178 0 -180 -22 -184 -13 -2 13 -4 57 -4 44 0 70 2 58 4 -23 4 -23 6 -23 178
0 105 4 176 10 180 24 15 65 -20 82 -70 l16 -50 1 68 1 67 -145 0 -145 0 1
-67z"/>
<path d="M4078 1653 c22 -4 22 -6 22 -183 0 -162 -2 -179 -17 -183 -10 -3 16
-5 57 -4 41 0 65 2 53 4 -23 4 -23 6 -23 179 0 172 0 175 23 184 16 6 -1 9
-58 8 -44 0 -70 -3 -57 -5z"/>
<path d="M4268 1650 c22 -9 22 -12 22 -184 0 -173 0 -175 -22 -179 -13 -2 2
-4 32 -4 30 0 45 2 33 4 -21 4 -22 10 -25 126 -2 67 -1 124 0 127 4 6 11 -2
137 -158 50 -61 93 -111 98 -111 4 -1 7 84 7 188 0 189 0 190 23 194 12 2 -3
4 -33 4 -30 0 -45 -2 -32 -4 19 -4 22 -11 22 -46 0 -23 3 -81 7 -129 3 -49 2
-88 -3 -88 -5 0 -58 61 -119 135 -98 119 -113 135 -140 134 -28 0 -28 -1 -7
-9z"/>
<path d="M4648 1653 c22 -4 22 -6 22 -183 0 -162 -2 -179 -17 -183 -10 -3 44
-5 120 -6 l137 -1 0 53 -1 52 -20 -37 c-24 -47 -48 -60 -102 -56 l-42 3 -3 88
c-3 83 -2 87 18 87 33 0 60 -19 60 -40 0 -11 5 -20 10 -20 6 0 10 28 10 65 0
37 -4 65 -10 65 -5 0 -10 -8 -10 -18 0 -26 -20 -42 -52 -42 l-28 0 0 80 0 79
34 7 c47 8 88 -13 101 -53 18 -53 26 -51 23 7 l-3 55 -135 1 c-74 1 -125 0
-112 -3z"/>
<path d="M4970 1631 c0 -16 -3 -43 -6 -60 -4 -20 -3 -31 5 -31 6 0 11 7 11 15
0 32 30 73 61 84 39 14 109 14 109 1 0 -5 -33 -69 -74 -142 -40 -73 -83 -152
-95 -175 l-21 -43 129 0 129 0 7 61 c8 72 1 87 -15 29 -17 -64 -39 -80 -111
-80 -53 0 -60 2 -55 18 3 10 44 90 91 179 47 89 85 164 85 167 0 3 -56 6 -125
6 l-125 0 0 -29z"/>
<path d="M2810 967 c0 -70 4 -127 8 -127 10 0 10 236 0 246 -5 4 -8 -50 -8
-119z"/>
<path d="M3790 960 c0 -73 3 -131 6 -128 7 7 6 249 -1 256 -3 3 -5 -55 -5
-128z"/>
<path d="M2114 960 c0 -69 1 -99 3 -67 l4 57 74 0 74 0 4 -57 c2 -32 3 -2 3
67 0 69 -1 97 -3 63 l-4 -63 -74 0 -74 0 -4 63 c-2 34 -3 6 -3 -63z"/>
<path d="M3119 1041 c-32 -32 -39 -46 -39 -77 0 -22 6 -50 13 -64 27 -54 116
-87 157 -59 11 7 5 8 -21 4 -48 -9 -103 15 -123 54 -46 88 21 182 118 167 29
-4 37 -3 26 4 -8 5 -32 10 -54 10 -31 0 -45 -7 -77 -39z"/>
<path d="M2660 955 c0 -73 4 -115 10 -115 7 0 10 41 9 115 0 63 -5 115 -10
115 -5 0 -9 -52 -9 -115z"/>
<path d="M2732 1008 c-1 -31 -7 -48 -14 -48 -10 0 -10 -2 -1 -8 6 -4 13 -32
16 -62 l3 -55 2 57 c2 50 5 57 25 61 l22 4 -22 2 c-19 1 -22 8 -26 49 l-3 47
-2 -47z"/>
<path d="M2363 960 c-45 -18 -56 -77 -21 -110 24 -22 54 -26 78 -10 11 8 8 9
-12 4 -27 -6 -68 9 -68 26 0 5 23 17 50 27 55 19 62 34 28 57 -25 18 -25 18
-55 6z m64 -27 c4 -11 -85 -48 -94 -39 -10 9 18 55 36 59 20 4 54 -7 58 -20z"/>
<path d="M2509 956 c-13 -6 -28 -24 -33 -39 -20 -56 60 -112 104 -72 17 15 19
15 23 -2 3 -10 5 14 6 52 0 49 -2 66 -9 55 -6 -8 -7 -27 -4 -42 4 -19 -1 -33
-15 -47 -26 -26 -55 -27 -81 -1 -23 23 -24 30 -9 64 9 19 21 26 48 28 29 2 32
4 14 9 -12 4 -32 1 -44 -5z"/>
<path d="M2865 960 c-17 -7 -15 -9 12 -9 28 -1 33 -5 37 -33 3 -18 7 -44 10
-58 2 -14 3 -1 2 29 -1 60 -24 86 -61 71z"/>
<path d="M3335 958 c-28 -16 -35 -28 -35 -65 0 -56 69 -84 110 -43 52 52 -12
143 -75 108z m73 -26 c18 -23 15 -49 -8 -72 -40 -40 -94 -13 -88 44 5 50 63
68 96 28z"/>
<path d="M3493 958 c-45 -21 -47 -94 -4 -117 25 -14 58 -14 66 -1 4 6 -5 7
-23 4 -36 -7 -62 16 -62 55 0 36 17 51 57 51 36 0 58 -27 50 -63 -3 -12 -1
-31 3 -42 6 -13 9 3 9 50 -1 39 -3 65 -5 58 -4 -8 -12 -8 -32 3 -31 16 -30 16
-59 2z"/>
<path d="M3655 945 c-31 -30 -32 -65 -2 -93 25 -24 53 -28 77 -11 12 8 10 9
-7 4 -54 -15 -94 30 -71 80 11 25 23 30 63 27 16 -2 17 0 5 8 -24 15 -39 12
-65 -15z"/>
<path d="M3860 954 c27 -5 29 -8 33 -60 l4 -54 -1 57 -1 58 -32 3 c-32 2 -32
2 -3 -4z"/>
</g>
</svg>
